<?xml version="1.0" encoding="UTF-8" standalone="no"?>
<svg
   xmlns:dc="http://purl.org/dc/elements/1.1/"
   xmlns:cc="http://creativecommons.org/ns#"
   xmlns:rdf="http://www.w3.org/1999/02/22-rdf-syntax-ns#"
   xmlns:svg="http://www.w3.org/2000/svg"
   xmlns="http://www.w3.org/2000/svg"
   version="1.1"
   id="svg2"
   viewBox="0 0 248.03136 318.89746"
   height="90mm"
   width="70mm">
  <defs
     id="defs4" />
  <metadata
     id="metadata7">
    <rdf:RDF>
      <cc:Work
         rdf:about="">
        <dc:format>image/svg+xml</dc:format>
        <dc:type
           rdf:resource="http://purl.org/dc/dcmitype/StillImage" />
        <dc:title></dc:title>
      </cc:Work>
    </rdf:RDF>
  </metadata>
  <g
     transform="translate(0,-733.46461)"
     id="layer1">
    <path
       id="path3469"
       d="M 215.69927,941.10676 121.17811,739.91535 57.736984,749.7983 199.52507,934.74786 37.391894,996.67751 1.9654919,1053.4088 Z"
       style="fill:#808080;fill-rule:evenodd;stroke:none;stroke-width:1px;stroke-linecap:butt;stroke-linejoin:miter;stroke-opacity:1" />
    <path
       id="path3471"
       d="M 188.3901,928.72984 80.624714,803.58955 46.318754,813.82341 Z"
       style="fill:none;fill-rule:evenodd;stroke:none;stroke-width:1px;stroke-linecap:butt;stroke-linejoin:miter;stroke-opacity:1" />
    <path
       id="path3473"
       d="M 186.6292,932.42629 69.985504,866.61009 41.857764,883.70668 Z"
       style="fill:none;fill-rule:evenodd;stroke:none;stroke-width:0.90433949px;stroke-linecap:butt;stroke-linejoin:miter;stroke-opacity:1" />
    <path
       id="path3475"
       d="M 184.54665,935.14646 78.902674,915.60079 54.427394,956.95331 Z"
       style="fill:none;fill-rule:evenodd;stroke:none;stroke-width:1.15641677px;stroke-linecap:butt;stroke-linejoin:miter;stroke-opacity:1" />
    <path
       id="path3477"
       d="m 34.371934,997.48107 -43.1914121,9.69063 35.3110121,2.1673 z"
       style="fill:none;fill-rule:evenodd;stroke:none;stroke-width:1.12741518px;stroke-linecap:butt;stroke-linejoin:miter;stroke-opacity:1" />
    <path
       id="path3479"
       d=""
       style="fill:#808080" />
    <path
       id="path3481"
       d="m 190.51328,929.79395 c -4.07063,-5.95061 -96.916206,-108.68724 -98.510736,-109.00529 -1.07882,-0.21488 -8.49249,1.70837 -16.475,4.27454 l -14.51357,4.66575 16.2176,12.77216 c 24.689426,19.4441 112.443756,87.83365 113.521826,88.47091 0.52242,0.3088 0.41436,-0.22134 -0.24012,-1.17807 z"
       style="fill:#a7fcd0;fill-opacity:1" />
    <path
       id="path3483"
       d=""
       style="fill:#d4ff2a" />
    <path
       id="path3485"
       d="m 192.21466,932.47623 c -0.51093,-0.31645 -25.38133,-12.18802 -55.26753,-26.38134 l -54.338556,-25.806 -12.03378,8.62039 c -6.61859,4.7412 -11.93882,8.77204 -11.82275,8.95737 0.15923,0.25434 78.583586,20.79712 130.006246,34.0543 2.41195,0.62184 3.96732,0.87172 3.45633,0.55554 z"
       style="fill:#a7fcd0;fill-opacity:1;stroke:none" />
    <path
       id="path3487"
       d="m 134.6789,952.29403 c 30.83548,-10.37934 56.52705,-19.09946 57.09241,-19.37809 1.10592,-0.54506 -45.49456,-2.31608 -77.58772,-2.94875 l -19.642396,-0.38716 -8.21194,20.60566 c -4.51657,11.3331 -8.1001,20.68984 -7.9634,20.79274 0.13671,0.10293 25.477556,-8.30508 56.313046,-18.68437 z"
       style="fill:#a7fcd0;fill-opacity:1;stroke:none;stroke-opacity:1" />
    <path
       id="path3489"
       d=""
       style="fill:#d4ff2a" />
    <path
       id="path3491"
       d="m 16.495362,1007.7876 9.26467,0.4656 3.009452,-4.3678 c 1.6552,-2.4024 2.83923,-4.40409 2.63118,-4.44829 -0.60886,-0.12933 -28.7406821,6.15599 -29.3637921,6.56059 -0.93436,0.6068 4.63394,1.2961 14.4584901,1.7899 z"
       style="fill:#a7fcd0;fill-opacity:1;stroke:none" />
    <path
       id="path3493"
       d="m 173.4674,960.9853 34.77906,-8.39148 12.96633,6.07242 -8.3965,18.58758 -102.16346,24.64998 12.59347,-14.53972"
       style="fill:#808080;fill-rule:evenodd;stroke:none;stroke-width:1px;stroke-linecap:butt;stroke-linejoin:miter;stroke-opacity:1" />
    <path
       id="path3497"
       d="m 233.16184,968.63275 8.97811,-6.22394 1.40237,2.01864 c 0.95368,1.37274 1.46159,1.70177 1.58747,1.02831 0.25127,-1.34457 0.2196,-10.02904 -0.0381,-10.42581 -0.26062,-0.4013 -23.62107,-3.55532 -24.08782,-3.25221 -0.18978,0.12322 1.9621,1.49238 4.78195,3.04253 2.81985,1.55017 5.04096,3.15946 4.9358,3.57621 -0.10515,0.41676 -1.69084,4.18002 -3.52375,8.36279 -1.83291,4.18277 -3.26092,7.71581 -3.17336,7.85122 0.0875,0.13541 4.19934,-2.55457 9.1373,-5.97774 z"
       style="fill:none;fill-opacity:1;stroke:none;stroke-width:0;stroke-miterlimit:4;stroke-dasharray:none;stroke-dashoffset:0;stroke-opacity:1" />
    <path
       id="path5735"
       d="m 225.14513,970.5476 c 5.63657,-3.15327 10.35412,-5.70087 10.48344,-5.66132 0.12968,0.0381 0.86364,1.44282 1.63181,3.11842 0.76818,1.67559 1.4805,2.92877 1.58295,2.78481 0.216,-0.30355 1.64062,-14.4404 1.48475,-14.73358 -0.11759,-0.22115 -25.87051,-6.24616 -27.79637,-6.50308 -1.07542,-0.14298 -0.37544,0.4256 5.18183,4.21301 3.53381,2.40838 6.45329,4.41986 6.48772,4.46996 0.0344,0.0501 -2.04903,4.00444 -4.62993,8.78742 -2.58089,4.78296 -4.68848,8.82258 -4.68352,8.97693 0.005,0.15437 4.62076,-2.29932 10.25732,-5.45255 z"
       style="fill:#808080;fill-opacity:1;stroke:none;stroke-width:0;stroke-miterlimit:4;stroke-dasharray:none;stroke-dashoffset:0;stroke-opacity:1" />
  </g>
</svg>
