
<svg id="svg2" xmlns:rdf="http://www.w3.org/1999/02/22-rdf-syntax-ns#" xmlns="http://www.w3.org/2000/svg" height="90mm" width="70mm" version="1.1" xmlns:cc="http://creativecommons.org/ns#" xmlns:dc="http://purl.org/dc/elements/1.1/" viewBox="0 0 248.03136 318.89746"><metadata id="metadata7"><rdf:RDF><cc:Work rdf:about=""><dc:format>image/svg+xml</dc:format><dc:type rdf:resource="http://purl.org/dc/dcmitype/StillImage"/><dc:title/></cc:Work></rdf:RDF></metadata><g id="layer1" transform="translate(0 -733.46)"><path id="path3469" class="mint-logo" fill-rule="evenodd" fill="#808080" d="m215.7 941.11-94.52-201.19-63.443 9.88 141.79 184.95-162.14 61.93-35.424 56.72z"/><g fill="none"><path id="path3471" class="mint-logo" d="m188.39 928.73-107.76-125.14-34.311 10.23z"/><path id="path3473" class="mint-logo" d="m186.63 932.43-116.64-65.82-28.132 17.1z"/><path id="path3475" class="mint-logo" d="m184.55 935.15-105.65-19.55-24.473 41.35z"/><path id="path3477" d="m34.372 997.48-43.191 9.6906 35.311 2.1673z"/></g><path id="path3481" class="mint-logo" fill="#a7fcd0" d="m190.51 929.79c-4.0706-5.9506-96.916-108.69-98.511-109.01-1.0788-0.21488-8.4925 1.7084-16.475 4.2745l-14.514 4.6658 16.218 12.772c24.689 19.444 112.44 87.834 113.52 88.471 0.52242 0.3088 0.41436-0.22134-0.24012-1.1781z"/><path id="path3485" class="mint-logo" fill="#a7fcd0" d="m192.21 932.48c-0.51093-0.31645-25.381-12.188-55.268-26.381l-54.339-25.806-12.034 8.6204c-6.6186 4.7412-11.939 8.772-11.823 8.9574 0.15923 0.25434 78.584 20.797 130.01 34.054 2.412 0.62184 3.9673 0.87172 3.4563 0.55554z"/><path id="path3487" class="mint-logo" fill="#a7fcd0" d="m134.68 952.29c30.835-10.379 56.527-19.099 57.092-19.378 1.1059-0.54506-45.495-2.3161-77.588-2.9488l-19.642-0.38716-8.2119 20.606c-4.5166 11.333-8.1001 20.69-7.9634 20.793 0.13671 0.10293 25.478-8.3051 56.313-18.684z"/><path id="path3491" class="mint-logo" fill="#a7fcd0" d="m16.495 1007.8 9.2647 0.4656 3.0095-4.3678c1.6552-2.4024 2.8392-4.4041 2.6312-4.4483-0.60886-0.12933-28.741 6.156-29.364 6.5606-0.93436 0.6068 4.6339 1.2961 14.458 1.7899z"/><path id="path3493" class="mint-logo" fill-rule="evenodd" fill="#808080" d="m173.47 960.99 34.779-8.3915 12.966 6.0724-8.3965 18.588-102.16 24.65 12.593-14.54"/><path id="path3497" fill="none" d="m233.16 968.63 8.9781-6.2239 1.4024 2.0186c0.95368 1.3727 1.4616 1.7018 1.5875 1.0283 0.25127-1.3446 0.2196-10.029-0.0381-10.426-0.26062-0.4013-23.621-3.5553-24.088-3.2522-0.18978 0.12322 1.9621 1.4924 4.782 3.0425 2.8198 1.5502 5.041 3.1595 4.9358 3.5762-0.10515 0.41676-1.6908 4.18-3.5238 8.3628-1.8329 4.1828-3.2609 7.7158-3.1734 7.8512 0.0875 0.13541 4.1993-2.5546 9.1373-5.9777z"/><path id="path5735" class="mint-logo" fill="#a7fcd0" d="m225.15 970.55c5.6366-3.1533 10.354-5.7009 10.483-5.6613 0.12968 0.0381 0.86364 1.4428 1.6318 3.1184 0.76818 1.6756 1.4805 2.9288 1.583 2.7848 0.216-0.30355 1.6406-14.44 1.4848-14.734-0.11759-0.22115-25.871-6.2462-27.796-6.5031-1.0754-0.14298-0.37544 0.4256 5.1818 4.213 3.5338 2.4084 6.4533 4.4199 6.4877 4.47s-2.049 4.0044-4.6299 8.7874-4.6885 8.8226-4.6835 8.9769c0.005 0.15437 4.6208-2.2993 10.257-5.4526z"/></g></svg>