<?xml version="1.0" encoding="UTF-8" standalone="no"?>
<svg id="svg4343" stroke-linejoin="round" xmlns:rdf="http://www.w3.org/1999/02/22-rdf-syntax-ns#" xmlns="http://www.w3.org/2000/svg" fill-rule="evenodd" height="16" width="37" version="1.1" stroke-miterlimit="1.414" clip-rule="evenodd" xmlns:cc="http://creativecommons.org/ns#" xmlns:dc="http://purl.org/dc/elements/1.1/" viewBox="0 0 37 16">
 <metadata id="metadata4357">
  <rdf:RDF>
   <cc:Work rdf:about="">
    <dc:format>image/svg+xml</dc:format>
    <dc:type rdf:resource="http://purl.org/dc/dcmitype/StillImage"/>
    <dc:title/>
   </cc:Work>
  </rdf:RDF>
 </metadata>
 <defs id="defs4355">
  <linearGradient id="COLORED_LINEAR_GRADIENT_" y2="41.823" gradientUnits="userSpaceOnUse" x2="59.837" gradientTransform="scale(1.3032 .76734)" y1=".00023494" x1="18.391" class="style-scope iron-icon">
   <stop id="stop4443" stop-color="#262626" stop-opacity="0" class="style-scope iron-icon" offset="0"/>
   <stop id="stop4445" stop-color="#262626" class="style-scope iron-icon" offset="1"/>
  </linearGradient>
 </defs>
 <style id="style4345">.lines{fill:#6441A5}</style>
 <g id="g4347" fill="#6441a5" fill-rule="nonzero">
  <path id="path4349" class="lines" d="m1.393 0-1.043 2.783v11.13h3.824v2.087h2.088l2.085-2.088h3.13l4.173-4.172v-9.74h-14.256zm1.39 1.39h11.477v7.653l-2.435 2.435h-3.825l-2.085 2.085v-2.085h-3.132v-10.088z"/>
  <path id="path4351" class="lines" d="m6.61 8.348h1.39v-4.173h-1.39v4.173zm3.824 0h1.39v-4.173h-1.39v4.173z"/>
 </g>
 <g id="g4440" fill-rule="evenodd" class="style-scope iron-icon" transform="matrix(.64806 0 0 .75827 16.093 .20767)" display="block"><!-- Updated 7/4 -->
  <path id="path4447" fill="#e62117" d="m23.952 8.4v-8.4l-7.952 4.2-7.9515-4.2-8.0069 4.2v8.4l15.958 8.4 15.958-8.4v-8.4l-8.0069 4.2z" class="style-scope iron-icon"/>
  <path id="path4449" fill="#b0261f" d="m8.0485 8.4v8.4l7.9515-4.2-7.9515-4.2z" class="style-scope iron-icon"/>
  <path id="path4451" fill="#cb241b" d="m16 4.2-7.9515 4.2 7.9515 4.2 7.952-4.2-7.952-4.2z" class="style-scope iron-icon"/>
  <path id="path4453" fill="#cb241b" d="m8.0485 0v8.4l-8.0069-4.2 8.0069-4.2z" class="style-scope iron-icon"/>
  <path id="path4455" fill="#952924" d="m8.0485 8.4v8.4l-8.0069-4.2 8.0069-4.2z" class="style-scope iron-icon"/>
  <path id="path4457" fill="#b0261f" d="m16 12.6v8.4l7.9515-4.2v-8.4l-7.952 4.2z" class="style-scope iron-icon"/>
  <path id="path4459" fill="#952924" d="m16 12.6v8.4l-7.9515-4.2 7.9515-4.2z" class="style-scope iron-icon"/>
  <path id="path4461" fill="#b0261f" d="m0.041558 12.6v-8.4l8.0069 4.2-8.0069 4.2z" class="style-scope iron-icon"/>
  <path id="path4463" fill="#fff" d="m23.952 0v8.4l8.006-4.2-8.006-4.2z" class="style-scope iron-icon"/>
  <path id="path4465" fill="url(#COLORED_LINEAR_GRADIENT_)" d="m31.958 4.2-0.976 0.5146-7.03-4.7146 8.006 4.2z" class="style-scope iron-icon"/>
  <path id="path4467" fill="#cb241b" d="m23.952 8.4v8.4l8.0069-4.2-8.0069-4.2z" class="style-scope iron-icon"/>
 </g>
</svg>
