<?xml-stylesheet type="text/css" href="../css/svg.css"?>   
<svg xmlns="http://www.w3.org/2000/svg" viewBox="0 0 32 32" preserveAspectRatio="xMidYMid meet" class="style-scope iron-icon" style="pointer-events: none; display: block; width: 100%; height: 100%;"><g transform="translate(0.000000, 6.000000)" fill-rule="evenodd" class="style-scope iron-icon"><!-- Updated 7/4 --><linearGradient x1="0.191149775%" y1="0.00382390855%" x2="674.769193%" y2="680.71403%" id="COLORED_LINEAR_GRADIENT_" class="style-scope iron-icon"><stop stop-color="#262626" stop-opacity="0" offset="0%" class="style-scope iron-icon"></stop><stop stop-color="#262626" offset="100%" class="style-scope iron-icon"></stop></linearGradient><path d="M23.9515152,8.4 L23.9515152,0 L16,4.2 L8.04848485,0 L0.0415584416,4.2 L0.0415584416,12.6 L16,21 L31.9584416,12.6 L31.9584416,4.2 L23.9515152,8.4 Z" fill="#E62117" class="style-scope iron-icon"></path><path d="M8.04848485,8.4 L8.04848485,16.8 L16,12.6 L8.04848485,8.4 Z" fill="#B0261F" class="style-scope iron-icon"></path><path d="M16,4.2 L8.04848485,8.4 L16,12.6 L23.9515152,8.4 L16,4.2 Z" fill="#CB241B" class="style-scope iron-icon"></path><path d="M8.04848485,-1.77635684e-15 L8.04848485,8.4 L0.0415584416,4.2 L8.04848485,-1.77635684e-15 Z" fill="#CB241B" class="style-scope iron-icon"></path><path d="M8.04848485,8.4 L8.04848485,16.8 L0.0415584416,12.6 L8.04848485,8.4 Z" fill="#952924" class="style-scope iron-icon"></path><path d="M16,12.6 L16,21 L23.9515152,16.8 L23.9515152,8.4 L16,12.6 Z" fill="#B0261F" class="style-scope iron-icon"></path><path d="M16,12.6 L16,21 L8.04848485,16.8 L16,12.6 Z" fill="#952924" class="style-scope iron-icon"></path><path d="M0.0415584416,12.6 L0.0415584416,4.2 L8.04848485,8.4 L0.0415584416,12.6 Z" fill="#B0261F" class="style-scope iron-icon"></path><path d="M23.9515152,-1.77635684e-15 L23.9515152,8.4 L31.9584416,4.2 L23.9515152,-1.77635684e-15 Z" fill="#FFFFFF" class="style-scope iron-icon"></path><path d="M31.9584416,4.2 L30.9818182,4.71456954 L23.9515152,0 L31.9584416,4.2 Z" fill="url(#COLORED_LINEAR_GRADIENT_)" class="style-scope iron-icon"></path><path d="M23.9515152,8.4 L23.9515152,16.8 L31.9584416,12.6 L23.9515152,8.4 Z" fill="#CB241B" class="style-scope iron-icon"></path></g></svg>
            

